PathFileType	4	(X/Y/Z)	Walk7.trc
DataRate	CameraRate	NumFrames	NumMarkers	Units	OrigDataRate	OrigDataStartFrame	OrigNumFrames
200.000000	200.000000	6	71	mm	200.000000	531	658
Frame#	Times		T10		RPSI		LowerBodyModelVer		RTH4		RElbow		C7		LBHD		LToe		LMT5		RBHD		RBack		LMT1		LTB1		LWRU		LLMAL		LTB3		RTH2		RUA1		LElbowM		LTB4		LLFC		LTB2		LTH3		RLFC		LACR1		RTB2		RTH3		RMFC		RKJC		RTB3		LASI		LElbow		LUA1		RTB1		RToe		LMFC		LKJC		RFA1		RWRU		RCAR		RMT1		RTB4		RWRR		RCAL		RMT5		RMMAL		RLMAL		LFHD		RFHD		LPSI		SACR		LCAR		LMMAL		LTH4		LCAL		RASI		LTH1		LHJC		MidPelvis		OPelvis		PELOrigin		RHJC		XPelvis		YPelvis		ZPelvis		LWRR		LTH2		RTH1		RACR1		RElbowM		STRN
			X1	Y1	Z1	X2	Y2	Z2	X3	Y3	Z3	X4	Y4	Z4	X5	Y5	Z5	X6	Y6	Z6	X7	Y7	Z7	X8	Y8	Z8	X9	Y9	Z9	X10	Y10	Z10	X11	Y11	Z11	X12	Y12	Z12	X13	Y13	Z13	X14	Y14	Z14	X15	Y15	Z15	X16	Y16	Z16	X17	Y17	Z17	X18	Y18	Z18	X19	Y19	Z19	X20	Y20	Z20	X21	Y21	Z21	X22	Y22	Z22	X23	Y23	Z23	X24	Y24	Z24	X25	Y25	Z25	X26	Y26	Z26	X27	Y27	Z27	X28	Y28	Z28	X29	Y29	Z29	X30	Y30	Z30	X31	Y31	Z31	X32	Y32	Z32	X33	Y33	Z33	X34	Y34	Z34	X35	Y35	Z35	X36	Y36	Z36	X37	Y37	Z37	X38	Y38	Z38	X39	Y39	Z39	X40	Y40	Z40	X41	Y41	Z41	X42	Y42	Z42	X43	Y43	Z43	X44	Y44	Z44	X45	Y45	Z45	X46	Y46	Z46	X47	Y47	Z47	X48	Y48	Z48	X49	Y49	Z49	X50	Y50	Z50	X51	Y51	Z51	X52	Y52	Z52	X53	Y53	Z53	X54	Y54	Z54	X55	Y55	Z55	X56	Y56	Z56	X57	Y57	Z57	X58	Y58	Z58	X59	Y59	Z59	X60	Y60	Z60	X61	Y61	Z61	X62	Y62	Z62	X63	Y63	Z63	X64	Y64	Z64	X65	Y65	Z65	X66	Y66	Z66	X67	Y67	Z67	X68	Y68	Z68	X69	Y69	Z69	X70	Y70	Z70	X71	Y71	Z71

531	2.655	250.88	1225.4	13.932	225.89	1047.8	36.54	9	2014	4	340.38	644.54	150.92	298.9	1086.4	229.58	333.3	1479.7	10.637	367.37	1610.3	-55.064	763.41	106.67	-78.247	705.04	59.837	-133.26	371.84	1604.4	81.704	314.72	1368	164.52	728.59	69.583	-57.301	555	418.56	-61.937	251.64	826.16	-276.85	580.17	73.581	-126.02	584.71	235.63	-69.974	404.56	654.76	120.32	411.35	1244.6	254.58	223.32	1110.1	-197.12	568.68	326.67	-65.022	476.93	528.03	-138.54	555.63	327.1	-136.24	475.78	588.3	-144.93	330.8	511.03	127.94	415.8	1415	-161.61	297.13	272.45	108.08	334.39	558.67	133.76	305.86	484.57	0.42596	318.33	497.8	64.181	274.56	189.47	29.477	421.18	1028.5	-151.82	264.53	1108.3	-272.15	340.99	1227.3	-237.51	342.31	363.37	41.465	393.8	23.196	89.389	474.5	498.04	-9.1139	475.71	513.03	-73.829	389.88	931.88	302.54	419.91	815.72	268.88	492.09	806.71	290.64	341.44	25.677	42.379	307.27	271.82	32.875	490.68	853.94	242.35	133.33	37.721	10.959	291.32	22.834	122.77	220.42	69.275	-1.4292	187.21	71.859	73.979	546.75	1639.3	-28.847	549.43	1635.7	53.214	230.22	1042.4	-32.336	228.06	1045.1	2.1019	317.33	791.18	-265.65	598.88	90.539	-45.447	451.49	679.18	-161.65	527.91	28.909	-76.424	410.45	990.34	160.09	425.3	768.31	-172.36	328.73	938.04	-115.36	321.94	1027.3	3.1197	415.82	1009.4	4.1375	415.82	1009.4	4.1375	321.43	912.09	96.74	494.4	994.49	5.0151	430.53	1087.4	14.188	413.08	999.71	83.499	322.42	835.18	-228.97	505.32	697.97	-115.37	341.58	744.09	176.35	445.02	1421.5	162.23	341.09	1086.3	305.72	534.78	1228.3	0.675
532	2.66	255.99	1224.6	13.491	230.78	1047.2	35.704	9	2014	4	343.66	643.92	151.03	304.49	1086	229.56	338.52	1478.8	10.334	372.58	1609.4	-55.726	776.27	111.57	-78.266	718.9	63.849	-133.27	377.1	1603.7	81.103	320.15	1367.4	164.08	742.43	73.656	-57.38	560.71	419.26	-62.204	254.93	825.61	-276.99	593.68	74.726	-125.82	594.51	236.94	-70.105	408.16	654.19	120.21	416.81	1244.1	254.22	227.5	1110.1	-197.28	576.34	327.75	-65.147	478.29	526.08	-138.62	562.49	327.5	-136.16	477.37	586.13	-145.71	333.17	510.58	127.95	421	1414.3	-161.96	298.55	271.92	108.01	337.2	558.06	133.37	308.85	483.92	0.4196	321.01	497.25	64.187	275.4	189.02	29.465	426.38	1027.6	-152	268.76	1107.9	-272.36	345.68	1226.8	-237.82	344.26	362.43	40.375	393.74	23.198	89.43	477.66	495.88	-9.1191	477.97	510.98	-73.871	395.24	931.28	302.52	425.69	815.29	268.95	497.61	806.2	290.68	341.47	25.782	42.444	308.8	271.43	32.709	496.29	853.5	242.11	133.44	38.046	11.05	291.3	22.863	122.78	220.62	69.376	-1.5341	187.33	72.133	73.933	552.02	1638.6	-29.622	554.73	1635.1	52.476	235.38	1041.7	-33.044	233.08	1044.5	1.3297	320.33	790.61	-265.92	611.77	92.052	-45.093	453.7	677.12	-162.01	542.87	28.701	-76.279	415.04	989.61	160.04	428.59	766.57	-172.82	333.75	937.19	-115.64	326.89	1026.5	2.6758	420.71	1008.6	4.0219	420.71	1008.6	4.0219	326.03	911.37	96.553	499.28	993.59	5.0521	435.47	1086.6	14.048	417.82	998.94	83.384	326.05	834.72	-229.43	508.41	695.61	-116.5	345.25	743.72	176.38	450.56	1420.9	161.69	346.64	1085.9	305.61	539.92	1227.6	0.27364
533	2.665	261.18	1224	13.219	235.62	1046.8	34.84	9	2014	4	347.14	643.32	150.87	310.2	1085.5	229.43	343.84	1478.3	9.6046	377.72	1608.7	-56.266	788.55	116.38	-78.093	731.69	67.714	-133.12	382.28	1603	80.469	325.62	1367	163.88	755.34	77.868	-57.344	566.94	420.09	-61.805	258.02	825.43	-277.34	606.55	76.178	-125.62	604.11	238.42	-70.281	411.71	653.22	119.98	422.34	1243.4	253.6	231.77	1109.9	-197.42	583.87	328.8	-65.373	479.71	524.17	-139.04	569.61	327.97	-136.25	478.67	583.73	-146.42	336.39	509.79	127.89	426.27	1413.4	-162.58	300.12	271.57	107.85	340.18	557.49	132.97	311.72	483.39	0.22311	324.05	496.59	64.058	276.38	188.72	29.33	431.54	1026.6	-152.26	273.14	1107.7	-272.74	350.59	1226.1	-238.18	345.61	362.29	38.185	393.82	23.198	89.458	480.39	493.77	-9.5892	480.05	508.97	-74.316	400.8	930.62	302.55	431.01	814.78	268.7	502.92	805.61	290.66	341.52	25.79	42.5	310.17	270.76	33.034	501.46	852.97	242.08	133.48	38.505	10.94	291.32	22.888	122.77	220.84	69.498	-1.6695	187.41	72.405	73.88	557.06	1638	-30.272	559.8	1634.5	51.77	240.31	1041.1	-33.75	237.97	1043.9	0.54457	323.64	789.82	-266	624.12	93.597	-44.68	455.83	675.08	-162.39	556.43	28.686	-76.597	419.44	989.06	160.02	431.87	764.85	-173.17	338.67	936.32	-115.96	331.73	1025.9	2.2106	425.49	1007.8	3.8767	425.49	1007.8	3.8767	330.44	910.77	96.389	504.04	992.75	5.105	440.32	1085.8	13.831	422.41	998.29	83.245	329.5	834.19	-229.88	511.19	692.77	-117.59	349.12	743.24	176.24	455.82	1420.4	161.17	352.33	1085.5	305.52	545.14	1226.8	-0.1438
534	2.67	266	1223.4	12.525	240.28	1046.1	33.89	9	2014	4	350.79	642.98	150.71	315.96	1085	229.37	348.98	1477.6	8.9795	382.93	1608	-56.985	799.94	121.06	-77.608	743.74	71.212	-133.04	387.52	1602.1	79.746	330.92	1366.3	163.42	767.61	82.518	-56.845	572.33	420.51	-62.319	261.42	825.23	-277.63	618.53	77.672	-125.06	612.85	239.57	-70.224	415.37	652.7	119.77	427.95	1242.8	253	236.38	1109.4	-197.58	591.15	329.76	-65.528	481.47	522.4	-139.22	576.75	328.44	-136.23	479.91	581.41	-147.01	339.34	509.15	127.9	431.67	1412.5	-163.21	301.79	271.22	107.73	343.24	557.23	132.98	314.57	482.9	0.16288	326.95	496.02	64.032	277.46	188.57	29.35	436.76	1025.6	-152.24	277.52	1107.2	-273.26	355.27	1225.4	-238.49	347.75	361.96	37.448	393.76	23.151	89.452	482.56	492.09	-10.279	482.02	507.25	-74.75	406.27	929.89	302.12	436.33	814.3	268.61	508.43	805.03	290.47	341.55	25.796	42.501	311.81	270.39	32.687	506.99	852.24	241.89	133.59	39	10.814	291.31	22.872	122.75	221.06	69.682	-1.8365	187.58	72.763	73.777	562.22	1637.2	-31.028	564.97	1633.7	51.011	245.42	1040.5	-34.556	242.85	1043.3	-0.33293	326.83	789.32	-266.4	635.78	95.098	-44.211	457.97	672.89	-162.95	568.89	28.748	-76.815	423.68	988.3	160.03	434.8	762.93	-173.43	343.66	935.42	-116.14	336.53	1025.1	1.7803	430.22	1006.9	3.8936	430.22	1006.9	3.8936	334.77	910.08	96.207	508.75	991.74	5.3706	445.12	1084.9	13.823	426.9	997.47	83.261	333	833.47	-230.4	514.02	689.96	-118.74	353.12	742.81	176.15	461.26	1419.8	160.46	357.56	1084.9	305.23	550.36	1226.1	-0.61566
535	2.675	271.55	1222.7	11.823	245.3	1045.4	32.973	9	2014	4	354.38	642.58	150.65	321.3	1084.4	229.05	354.25	1476.9	8.5771	388.15	1607.2	-57.782	810.62	125.54	-77.147	755.19	74.486	-132.68	392.6	1601.4	79.032	336.17	1365.9	162.94	778.73	86.289	-56.935	577	420.8	-62.768	264.97	824.72	-277.84	630.03	79.079	-124.55	621.16	240.75	-69.941	418.88	651.72	119.8	433.45	1242.3	252.39	240.95	1109.3	-198.1	598.22	330.53	-65.516	483.68	520.59	-139.42	584.19	328.85	-136.39	481.18	578.88	-147.67	342.16	508.73	127.73	436.77	1411.8	-163.7	303.21	270.72	107.54	346.51	557.02	133.1	317.48	482.47	0.078362	329.82	495.6	63.905	278.39	188.35	29.327	441.93	1024.6	-152.12	281.75	1106.8	-273.48	360.2	1224.8	-239.13	349.98	361.24	38.098	393.58	22.889	89.002	485.45	490.54	-10.785	484.56	505.57	-75.102	411.75	929.58	302.03	441.65	813.63	268.66	513.74	804.34	290.34	341.55	25.807	42.473	313.23	269.9	32.487	512.12	851.56	241.72	133.71	39.42	10.802	291.31	22.865	122.72	221.29	69.836	-1.9439	187.87	73.22	73.725	567.33	1636.6	-31.689	570.01	1633.2	50.398	250.56	1039.8	-34.858	247.93	1042.6	-0.94257	330.03	788.78	-266.74	646.82	96.37	-43.64	460.17	670.85	-163.56	581.31	28.762	-76.179	427.83	987.78	160.15	437.73	760.81	-173.77	348.65	934.58	-116.19	341.4	1024.4	1.5365	434.88	1006.2	4.0155	434.88	1006.2	4.0155	339.06	909.54	96.157	513.39	990.94	5.7596	449.81	1084.2	13.886	431.3	996.83	83.385	336.53	833.03	-230.59	516.89	687.25	-119.98	356.9	742.3	175.77	466.62	1419.2	159.67	363.2	1084.4	305.05	555.53	1225.3	-0.9603
536	2.68	276.32	1221.9	11.022	250.25	1044.7	32.557	9	2014	4	357.9	641.79	150.44	326.73	1083.8	229.13	359.6	1476.2	7.9797	393.29	1606.4	-58.4	820.89	129.69	-76.336	765.8	77.216	-132.36	397.73	1600.9	78.36	341.8	1365.3	162.5	789.23	89.342	-57.009	581.99	420.94	-62.982	268.43	824.34	-278.16	640.62	80.149	-123.78	629.1	241.68	-69.538	422.44	650.7	119.62	438.99	1241.7	251.78	245.34	1109.2	-198.6	604.37	331.01	-65.319	486.6	519.22	-139.63	591.35	329.34	-136.33	482.49	576.45	-148.41	345.03	508.22	127.37	441.91	1411	-164.45	304.43	270.29	107.42	350.03	556.46	133.01	320.43	482.09	-0.30248	332.73	495.15	63.534	279.37	187.99	29.404	447.5	1023.7	-152.37	286.17	1106.4	-273.94	364.54	1224.3	-239.66	352.34	360.08	39.089	393.56	22.746	88.77	488.94	488.95	-11.736	487.77	504.08	-75.683	417.17	929.25	301.9	447.25	813.08	268.5	519.18	803.79	290.05	341.57	25.832	42.441	314.57	269.51	32.368	517.55	851.04	241.43	133.85	39.804	10.806	291.3	22.871	122.69	221.51	69.993	-2.0217	188.19	73.832	73.652	572.46	1635.9	-32.411	575.12	1632.5	49.645	255.67	1038.9	-35.689	252.96	1041.8	-1.5658	333.6	788.19	-267.18	656.71	97.7	-42.866	462.27	668.58	-164.01	593.18	28.945	-74.745	432.07	987.23	160.33	440.83	758.81	-174.22	353.95	933.56	-116.65	346.37	1023.6	1.2076	439.79	1005.4	3.9811	439.79	1005.4	3.9811	343.46	908.78	95.979	518.29	990.2	6.0789	454.67	1083.4	13.805	435.87	996.2	83.348	339.48	832.05	-230.93	519.66	684.44	-121.23	360.69	741.83	175.08	471.91	1418.4	159.06	368.57	1083.9	304.69	560.72	1224.6	-1.2939
